<mxfile host="app.diagrams.net" modified="2024-01-12T10:08:33.298Z" agent="Mozilla/5.0 (Macintosh; Intel Mac OS X 10_15_7) AppleWebKit/537.36 (KHTML, like Gecko) Chrome/120.0.0.0 Safari/537.36" etag="On1Rsk870cGzuWg43spV" version="22.1.18" type="github">
  <diagram name="第 1 页" id="SORve16dFSBg72v4E7zD">
    <mxGraphModel dx="2474" dy="1180" grid="1" gridSize="10" guides="1" tooltips="1" connect="1" arrows="1" fold="1" page="0" pageScale="1" pageWidth="827" pageHeight="1169" math="0" shadow="0">
      <root>
        <mxCell id="0" />
        <mxCell id="1" parent="0" />
        <mxCell id="k1QYn-MifYpRVhnTq0kL-1" value="用户" style="rounded=0;whiteSpace=wrap;html=1;" vertex="1" parent="1">
          <mxGeometry x="-320" y="320" width="350" height="300" as="geometry" />
        </mxCell>
        <mxCell id="k1QYn-MifYpRVhnTq0kL-2" value="组织" style="rounded=0;whiteSpace=wrap;html=1;" vertex="1" parent="1">
          <mxGeometry x="50" y="320" width="350" height="300" as="geometry" />
        </mxCell>
        <mxCell id="k1QYn-MifYpRVhnTq0kL-3" value="角色" style="rounded=0;whiteSpace=wrap;html=1;" vertex="1" parent="1">
          <mxGeometry x="410" y="320" width="350" height="300" as="geometry" />
        </mxCell>
        <mxCell id="k1QYn-MifYpRVhnTq0kL-4" value="服务" style="rounded=0;whiteSpace=wrap;html=1;" vertex="1" parent="1">
          <mxGeometry x="780" y="320" width="350" height="300" as="geometry" />
        </mxCell>
      </root>
    </mxGraphModel>
  </diagram>
</mxfile>
